# xmcd
#
# Track frame offsets:
#	150
#	14615
#	26719
#	47017
#	57834
#	69039
#	87417
#	102615
#	117409
#	133867
#
# Disc length: 1939 seconds
#
# Revision: 1
# Processed by: cddbd v1.5.2PL0 Copyright (c) Steve Scherf et al.
# Submitted via: audiograbber 1.83.01
#
DISCID=8a07910a
DTITLE=Hank Williams Jr. - Family Tradition
DYEAR=1979
DGENRE=Country
TTITLE0=To Love Somebody
TTITLE1=Old Flame, New Fire
TTITLE2=Always Loving You
TTITLE3=We Can Work It All Out
TTITLE4=I Fought The Law
TTITLE5=Family Tradition
TTITLE6=Only Daddy That'll Walk The Line
TTITLE7=Paying On Time
TTITLE8=I've Got Rights
TTITLE9=I Just Ain't Been Able
EXTD=
EXTT0=
EXTT1=
EXTT2=
EXTT3=
EXTT4=
EXTT5=
EXTT6=
EXTT7=
EXTT8=
EXTT9=
PLAYORDER=
